<svg id="Layer_3" data-name="Layer 3" xmlns="http://www.w3.org/2000/svg" width="335" height="44" viewBox="0 0 335 44">
  <defs>
    <style>
      .cls-1 {
        fill: #182b49;
      }

      .cls-2 {
        fill: #c69214;
      }
    </style>
  </defs>
  <title>UCSanDiegoExtensionLogoHorizWeb</title>
  <rect class="cls-1" x="149.57" y="21.34" width="41.423" height="0.743" transform="translate(148.57 191.993) rotate(-90)"/>
  <path class="cls-1" d="M197.638,21.594H190.7v5.414h7.761V29.77H187.335V11.34h10.713V14.1H190.7V18.86h6.941Z"/>
  <path class="cls-1" d="M212.918,29.77l-1.995-3.664c-.793-1.422-1.312-2.406-1.831-3.473h-.082c-.437,1.066-.929,2.05-1.667,3.473l-1.831,3.664h-3.853l5.465-9.324-5.247-9.105h3.853l2,3.8c.6,1.148,1.038,2.05,1.53,3.09h.054c.492-1.148.875-1.969,1.448-3.09l1.968-3.8h3.853l-5.384,9,5.6,9.433Z"/>
  <path class="cls-1" d="M224.646,14.157H219.4V11.34h13.91v2.816h-5.3V29.77h-3.361Z"/>
  <path class="cls-1" d="M247.413,21.594h-6.941v5.414h7.761V29.77H237.111V11.34h10.713V14.1h-7.351V18.86h6.941Z"/>
  <path class="cls-1" d="M252.828,29.77V11.34h3.826l4.755,7.9a50.715,50.715,0,0,1,3.143,6.179h.054c-.219-2.461-.3-4.839-.3-7.656V11.34h3.116V29.77H263.95l-4.81-8.093a64.155,64.155,0,0,1-3.307-6.371l-.082.028c.137,2.379.164,4.812.164,7.847v6.59Z"/>
  <path class="cls-1" d="M272.864,26.106a9.3,9.3,0,0,0,4.454,1.176c2.159,0,3.361-1.012,3.361-2.515,0-1.395-.929-2.215-3.279-3.063-3.034-1.094-4.974-2.707-4.974-5.359,0-3.008,2.514-5.3,6.5-5.3a9.723,9.723,0,0,1,4.427.93l-.82,2.707a7.79,7.79,0,0,0-3.662-.875c-2.132,0-3.061,1.148-3.061,2.215,0,1.422,1.066,2.078,3.525,3.035,3.2,1.2,4.755,2.816,4.755,5.468,0,2.953-2.241,5.523-7,5.523a10.937,10.937,0,0,1-4.974-1.148Z"/>
  <path class="cls-1" d="M292.134,11.34V29.77h-3.361V11.34Z"/>
  <path class="cls-1" d="M313.971,20.364c0,6.18-3.744,9.707-8.827,9.707-5.193,0-8.472-3.964-8.472-9.378,0-5.66,3.552-9.652,8.745-9.652C310.8,11.04,313.971,15.114,313.971,20.364Zm-13.746.273c0,3.746,1.886,6.726,5.11,6.726,3.252,0,5.083-3.007,5.083-6.863,0-3.472-1.722-6.754-5.083-6.754C302,13.747,300.224,16.837,300.224,20.637Z"/>
  <path class="cls-1" d="M318.512,29.77V11.34h3.826l4.755,7.9a50.644,50.644,0,0,1,3.143,6.179h.055c-.219-2.461-.3-4.839-.3-7.656V11.34h3.116V29.77h-3.471l-4.81-8.093a64.155,64.155,0,0,1-3.307-6.371l-.082.028c.137,2.379.164,4.812.164,7.847v6.59Z"/>
  <path class="cls-1" d="M19.213,22.175c0,4.5-.658,7.922-7.5,7.922-6.8,0-7.857-3.287-7.857-7.922V11.228c0-2.467-1.049-2.7-2.86-2.7V7.875H9.645v.656c-1.774,0-2.86.23-2.86,2.7V22.175c0,3.353.791,6.638,5.061,6.638,4.739,0,5.491-2.727,5.491-6.638V11.228c0-2.467-1.083-2.7-2.857-2.7V7.875h7.593v.656c-1.807,0-2.86.23-2.86,2.7Z"/>
  <path class="cls-1" d="M37.393,29.209a16.64,16.64,0,0,1-5.884.888c-6.573,0-9.731-5-9.731-12,0-6.083,1.97-10.553,9.006-10.553a23.985,23.985,0,0,1,6.315.919l.295,5.163h-.821a5.67,5.67,0,0,0-5.821-4.8c-5.289,0-5.719,5.622-5.719,9.008,0,4.242.923,10.784,8.122,10.784a10.332,10.332,0,0,0,4.24-.822Z"/>
  <path class="cls-1" d="M55.05,12.608c-.3-1.741-1.614-3.781-5.13-3.781-2.2,0-4.143,1.414-4.143,3.585,0,2.926,3.915,3.879,6.775,5.556,2.6,1.513,4.336,2.86,4.336,5.984,0,4.174-3.617,6.147-8.119,6.147a36.408,36.408,0,0,1-5.653-.625l-.231-4.635h.824c.262,1.742,1.807,3.781,5.325,3.781,2.893,0,4.766-1.873,4.766-4.144,0-3.549-5.458-4.634-8.516-6.969A4.934,4.934,0,0,1,43.148,13.1c0-3.944,3.257-5.554,7.394-5.554a23.425,23.425,0,0,1,5.1.558l.229,4.5Z"/>
  <path class="cls-1" d="M70.323,29.8a8.407,8.407,0,0,1-2.132.263c-1.7,0-2.2-.876-2.2-2.134h-.061a4.652,4.652,0,0,1-4.152,2.134,3.315,3.315,0,0,1-3.507-3.3c0-4.241,5.5-4.241,7.72-4.447V21.2c0-2.049-.03-4.211-2.485-4.211-1.813,0-2.047.76-2.047,1.7a1.381,1.381,0,0,1-1.375,1.521,1.314,1.314,0,0,1-1.4-1.317c0-1.9,2.835-2.865,4.854-2.865,4.006,0,4.736,1.929,4.736,4.648v7.254c0,1.024.35,1.374,1.259,1.374a3.707,3.707,0,0,0,.788-.116ZM66,23.276c-1.375.03-5.119.294-5.119,3.015a2.318,2.318,0,0,0,1.992,2.543C64.769,28.833,66,26.99,66,25Z"/>
  <path class="cls-1" d="M70.968,29.271c1.226,0,2.221-.262,2.221-2.163V19.124c0-1.755-1.375-1.843-2.221-1.9v-.5l4.5-.7v3.86h.06c.408-1.082,1.722-3.86,4.618-3.86,3.1,0,3.394,1.694,3.394,4.415v6.669c0,1.9.995,2.163,2.221,2.163v.5H79.037v-.5c1.226,0,2.224-.262,2.224-2.163V21.083c0-2.515-.027-3.656-1.962-3.656-1.721,0-3.829,3.3-3.829,6.083v3.6c0,1.9.992,2.163,2.223,2.163v.5H70.968Z"/>
  <path class="cls-1" d="M89.11,29.11c1.777,0,2.862-.23,2.862-2.694V11.228c0-2.467-1.085-2.7-2.862-2.7V7.875H96.8c5.455,0,11.24,1.183,11.24,10.979,0,9.764-6.08,10.916-11.24,10.916H89.11Zm5.785-3.385c0,2.4.264,2.762,1.909,2.762,5.653,0,7.987-3.025,7.987-9.633,0-6.05-1.741-9.7-7.987-9.7-1.645,0-1.909.2-1.909,2.762Z"/>
  <path class="cls-1" d="M109.24,29.271c1.232,0,2.226-.262,2.226-2.163V19.124c0-1.755-1.345-1.843-2.226-1.9v-.5l4.507-.7V27.108c0,1.9.992,2.163,2.221,2.163v.5H109.24Zm1.612-17.605a1.665,1.665,0,1,1,1.664,1.667A1.646,1.646,0,0,1,110.852,11.666Z"/>
  <path class="cls-1" d="M126.555,29.533a9.381,9.381,0,0,1-3.482.528c-4.532,0-7.075-2.487-7.075-7.4,0-4.271,1.725-6.637,5.934-6.637,2.631,0,5,1.461,5,4.853v.644h-8.511c0,2.456,1.2,7.458,6.083,7.458a4.835,4.835,0,0,0,2.047-.38Zm-2.223-8.978c0-1.549-.529-3.566-2.777-3.566-2.224,0-3.13,2.485-3.13,3.566Z"/>
  <path class="cls-1" d="M136.44,27.429c1.4,0,4.648.059,4.648,3.3,0,3.334-3.276,5.2-7.166,5.2-2.865,0-5.846-1.082-5.846-3.714a3.407,3.407,0,0,1,2.281-3.072,2.269,2.269,0,0,1-1.259-2.075,4.429,4.429,0,0,1,1.259-2.546,4.37,4.37,0,0,1-1.7-3.917c0-3.772,2.747-4.59,5.523-4.59a5.644,5.644,0,0,1,3.017.728c.466-1.109,1.165-3.128,2.95-3.128a1.319,1.319,0,0,1,1.4,1.4,1.246,1.246,0,0,1-1.375,1.318c-.76,0-.937-.41-1.317-.41-.642,0-.9.85-1.052,1.316a4.912,4.912,0,0,1,1.314,3.511c0,2.952-1.84,4.62-5.347,4.62a6.436,6.436,0,0,1-2.661-.439,2.107,2.107,0,0,0-.526,1.315c0,1.171,1.46,1.171,2.4,1.171Zm-5.06,2.076a2.586,2.586,0,0,0-1.4,2.251c0,1.726,1.545,3.218,4.091,3.218,2.661,0,5.119-1.375,5.119-3.48,0-1.492-1.226-1.99-2.692-1.99Zm2.543-5.089c2.457,0,2.78-1.929,2.78-3.481,0-2.191-.76-3.946-2.868-3.946-2.311,0-2.747,1.7-2.747,3.393C131.087,22.6,131.817,24.416,133.922,24.416Z"/>
  <path class="cls-1" d="M141.118,23.043c0-4.389,2.367-7.019,6.108-7.019s6.113,2.63,6.113,7.019-2.367,7.017-6.113,7.017S141.118,27.429,141.118,23.043Zm6.108,6.051c2.926,0,3.512-3.624,3.512-6.051s-.586-6.054-3.512-6.054-3.507,3.626-3.507,6.054S144.3,29.095,147.225,29.095Z"/>
  <path class="cls-2" d="M126.582,34.81H1v.743H127.29A4.737,4.737,0,0,1,126.582,34.81Z"/>
  <path class="cls-2" d="M153.1,34.81h-11.55a6.663,6.663,0,0,1-.87.743H153.1Z"/>
</svg>
